<svg xmlns="http://www.w3.org/2000/svg" viewBox="0 0 500.59 59.54"><defs><style>.cls-1{fill:#ebe728;}.cls-2{font-size:30px;fill:#231f20;font-family:Sohne-Buch, Söhne;}.cls-3{letter-spacing:0em;}.cls-4{letter-spacing:-0.03em;}.cls-5{fill:#010101;}</style></defs><g id="Layer_1" data-name="Layer 1"><rect class="cls-1" x="53.66" width="393.28" height="59.54" rx="29.77"/><text class="cls-2" transform="translate(77.66 41.56)">BERNADETTE FIGUE<tspan class="cls-3" x="284.4" y="0">R</tspan><tspan class="cls-4" x="303.78" y="0">O</tspan><tspan x="324.51" y="0">A</tspan></text><path class="cls-5" d="M49.69,25.5a3.52,3.52,0,0,0-2.62-1.17H34.49l-.91-1.76a3.57,3.57,0,0,0-3.2-1.93H19.58a4,4,0,0,0-3.27,1.71,2.51,2.51,0,0,1-2.06,1.06h-.84a1.68,1.68,0,0,0-1.25-.55H11V22.3A1.68,1.68,0,0,0,9.3,20.64H8a2.67,2.67,0,0,0-4.93,0H1.69A1.68,1.68,0,0,0,0,22.3V38.9a1.67,1.67,0,0,0,1.69,1.65H9.3A1.67,1.67,0,0,0,11,38.9v-.56h1.17a1.69,1.69,0,0,0,1.25-.55h.84a2.51,2.51,0,0,1,2.06,1.06,4,4,0,0,0,3.27,1.7h9.71a3.55,3.55,0,0,0,3.59-3.5v-.18h.21a3.55,3.55,0,0,0,3.59-3.5v-.19h.22a3.55,3.55,0,0,0,3.59-3.5v-.19H47a3.5,3.5,0,0,0,2.76-1.34l.05-.07a2,2,0,0,0,.43-1.24A2,2,0,0,0,49.69,25.5Zm-44.2-5a1.11,1.11,0,1,1,0,2.21,1.11,1.11,0,1,1,0-2.21Zm6.88,16.22a.2.2,0,0,1-.21.19H11V34.7a.74.74,0,0,0-1.47,0v4.2a.2.2,0,0,1-.22.18H1.69a.2.2,0,0,1-.22-.18V22.3a.2.2,0,0,1,.22-.18H2.92a2.65,2.65,0,0,0,5.15,0H9.3a.2.2,0,0,1,.22.18V32A.74.74,0,0,0,11,32v-7.7h1.17a.19.19,0,0,1,.21.18ZM29.29,28a.74.74,0,1,0,0,1.47H39v.19a2.08,2.08,0,0,1-2.12,2H28.34a.74.74,0,1,0,0,1.47h6.87v.19a2.08,2.08,0,0,1-2.12,2H26.53a.74.74,0,1,0,0,1.47h4.88v.18a2.08,2.08,0,0,1-2.12,2H19.58A2.48,2.48,0,0,1,17.52,38a4,4,0,0,0-3.27-1.7h-.41V24.88h.41a4,4,0,0,0,3.27-1.7,2.48,2.48,0,0,1,2.06-1.06h10.8a2.11,2.11,0,0,1,1.9,1.13l.56,1.08h-.66A20.09,20.09,0,0,1,28.47,24a.73.73,0,0,0-.86.58.74.74,0,0,0,.59.86,21.14,21.14,0,0,0,4,.38H44.75V28Zm19.32-.84,0,.07A2,2,0,0,1,47,28h-.73V25.8h.84a2,2,0,0,1,1.52.68.54.54,0,0,1,.14.36A.52.52,0,0,1,48.61,27.18Z"/><path class="cls-5" d="M450.39,25.37a2,2,0,0,0,.43,1.24l.05.07A3.5,3.5,0,0,0,453.63,28h6.47v.19a3.55,3.55,0,0,0,3.59,3.5h.22v.19a3.55,3.55,0,0,0,3.59,3.5h.21v.18a3.55,3.55,0,0,0,3.59,3.5H481a3.94,3.94,0,0,0,3.27-1.7,2.51,2.51,0,0,1,2.06-1.06h.84a1.7,1.7,0,0,0,1.26.55h1.16v.56a1.67,1.67,0,0,0,1.69,1.65h7.61a1.67,1.67,0,0,0,1.69-1.65V20.83a1.68,1.68,0,0,0-1.69-1.66h-1.34a2.66,2.66,0,0,0-4.93,0h-1.34a1.68,1.68,0,0,0-1.69,1.66v.56h-1.16a1.7,1.7,0,0,0-1.26.55h-.84a2.51,2.51,0,0,1-2.06-1.06A3.94,3.94,0,0,0,481,19.17h-10.8A3.57,3.57,0,0,0,467,21.1l-.91,1.76H453.52A3.52,3.52,0,0,0,450.9,24,2,2,0,0,0,450.39,25.37Zm45.88-5.28A1.17,1.17,0,1,1,495.1,19,1.14,1.14,0,0,1,496.27,20.09Zm-8,2.95a.2.2,0,0,1,.22-.18h1.16v7.7a.74.74,0,0,0,.74.73.73.73,0,0,0,.73-.73V20.83a.21.21,0,0,1,.22-.19h1.23a2.65,2.65,0,0,0,5.16,0h1.22a.21.21,0,0,1,.22.19v16.6a.2.2,0,0,1-.22.18h-7.61a.2.2,0,0,1-.22-.18v-4.2a.73.73,0,0,0-.73-.73.74.74,0,0,0-.74.73V35.4h-1.16a.2.2,0,0,1-.22-.19ZM471.3,26.55H455.84V24.33h12.57a21.32,21.32,0,0,0,4-.38.74.74,0,0,0,.58-.86.73.73,0,0,0-.86-.58,20.09,20.09,0,0,1-3.71.35h-.66l.56-1.08a2.12,2.12,0,0,1,1.9-1.14H481a2.49,2.49,0,0,1,2.06,1.07,4,4,0,0,0,3.27,1.7h.41V34.85h-.41a4,4,0,0,0-3.27,1.7A2.48,2.48,0,0,1,481,37.61H471.3a2.08,2.08,0,0,1-2.12-2V35.4h4.89a.74.74,0,0,0,0-1.47H467.5a2.08,2.08,0,0,1-2.12-2v-.19h6.88a.74.74,0,0,0,0-1.47h-8.57a2.08,2.08,0,0,1-2.12-2V28h9.73a.74.74,0,1,0,0-1.47Zm-19.44-1.18A.54.54,0,0,1,452,25a2,2,0,0,1,1.52-.68h.85v2.22h-.74a2.06,2.06,0,0,1-1.6-.77l0-.07A.54.54,0,0,1,451.86,25.37Z"/></g></svg>