<?xml version="1.0" encoding="utf-8"?>
<!-- Generator: Adobe Illustrator 24.3.0, SVG Export Plug-In . SVG Version: 6.00 Build 0)  -->
<svg version="1.1" id="Capa_1" xmlns="http://www.w3.org/2000/svg" xmlns:xlink="http://www.w3.org/1999/xlink" x="0px" y="0px"
	 viewBox="0 0 512 512" style="enable-background:new 0 0 512 512;" xml:space="preserve">
<g>
	<g>
		<path d="M0,226.2c0,4.5,1.5,9,4.3,12.6l0.5,0.7c6.6,8.6,17.2,13.7,28.2,13.7h66v1.9c0,19.7,16.4,35.7,36.6,35.7h2.2v1.9
			c0,19.7,16.4,35.7,36.6,35.7h2.2v1.9c0,19.7,16.4,35.7,36.6,35.7h99c13.4,0,25.9-6.5,33.4-17.4c4.7-6.8,12.5-10.9,21-10.9h8.5
			c3.2,3.5,7.7,5.6,12.8,5.6h11.9v5.7c0,9.3,7.7,16.9,17.2,16.9h77.7c9.5,0,17.2-7.6,17.2-16.9V179.8c0-9.3-7.7-16.9-17.2-16.9
			h-13.7C477.2,153,467.4,146,456,146s-21.3,7-25.1,16.9h-13.7c-9.5,0-17.2,7.6-17.2,16.9v5.7H388c-5.1,0-9.7,2.2-12.8,5.6h-8.5
			c-8.5,0-16.3-4.1-21-10.9c-7.5-10.9-20-17.4-33.4-17.4H202.2c-13.9,0-26.5,7.5-32.7,19.7l-9.3,18h-5.8c-0.1,0-0.2,0-0.2,0H31.9
			c-10.3,0-20,4.4-26.7,11.9C1.8,216.3,0,221.1,0,226.2z M467.9,172.3c0,6.2-5.3,11.3-11.9,11.3s-11.9-5.1-11.9-11.3
			S449.4,161,456,161S467.9,166.1,467.9,172.3z M385.8,202.4c0-1.1,1-1.9,2.2-1.9h11.9V279c0,4.1,3.4,7.5,7.5,7.5s7.5-3.4,7.5-7.5
			v-99.2c0-1,1-1.9,2.2-1.9h12.5c2.6,11.8,13.4,20.7,26.3,20.7s23.7-8.9,26.3-20.7h12.5c1.2,0,2.2,0.9,2.2,1.9v169.3
			c0,1-1,1.9-2.2,1.9h-77.7c-1.2,0-2.2-0.9-2.2-1.9v-42.8c0-4.1-3.4-7.5-7.5-7.5s-7.5,3.4-7.5,7.5v22.1H388c-1.2,0-2.2-0.9-2.2-1.9
			V202.4z M213.3,238.2H55.5v-22.6h109.2c0.1,0,0.2,0,0.2,0h18.8c13.6,0,27.3-1.3,40.6-3.9c4.1-0.8,6.7-4.7,5.9-8.8
			c-0.8-4.1-4.7-6.7-8.8-5.9c-12.4,2.4-25.1,3.6-37.8,3.6h-6.7l5.7-11.1c3.7-7.1,11.1-11.5,19.4-11.5h110.1c8.5,0,16.4,4.1,21,10.9
			c7.5,10.9,20,17.4,33.4,17.4h4.1v116.7h-4.1c-13.4,0-25.9,6.5-33.4,17.4c-4.7,6.8-12.5,10.9-21,10.9h-99
			c-11.9,0-21.6-9.3-21.6-20.7v-1.9h49.8c4.1,0,7.5-3.4,7.5-7.5s-3.4-7.5-7.5-7.5h-55.9c-0.2,0-0.3,0-0.5,0c-0.3,0-0.6,0-0.9,0h-9.7
			c-11.9,0-21.6-9.3-21.6-20.7v-1.9H223c4.1,0,7.5-3.4,7.5-7.5s-3.4-7.5-7.5-7.5h-77.7c-0.1,0-0.2,0-0.2,0h-9.5
			c-11.9,0-21.6-9.3-21.6-20.7v-1.9h99.3c4.1,0,7.5-3.4,7.5-7.5S217.4,238.2,213.3,238.2L213.3,238.2z M15,226.2
			c0-1.4,0.5-2.7,1.4-3.7c3.9-4.4,9.5-6.9,15.5-6.9h8.6v22.6h-7.5c-6.4,0-12.5-2.9-16.3-7.9l-0.5-0.7C15.4,228.6,15,227.4,15,226.2z
			"/>
	</g>
</g>
</svg>
